PathFileType	4	(X/Y/Z)	StaticT.trc																																																																									
DataRate	CameraRate	NumFrames	NumMarkers	Units	OrigDataRate	OrigDataStartFrame	OrigNumFrames																																																																					
100	100	6	25	mm	100	240	481																																																																					
Frame#	Time	AA			AI			Ant_Sh			CV7			GH			LAH			Lat_Sh			LCAJ			LPH			Post_Sh			RAH			RCAJ			RHLE			RHME			RPH			RUA			SJN			SXS			TS			TV8			centelbow			centpxt8			centijc7			centLPHRPH			ScapulaThoracicContactPt		
		X1	Y1	Z1	X2	Y2	Z2	X3	Y3	Z3	X4	Y4	Z4	X5	Y5	Z5	X6	Y6	Z6	X7	Y7	Z7	X8	Y8	Z8	X9	Y9	Z9	X10	Y10	Z10	X11	Y11	Z11	X12	Y12	Z12	X13	Y13	Z13	X14	Y14	Z14	X15	Y15	Z15	X16	Y16	Z16	X17	Y17	Z17	X18	Y18	Z18	X19	Y19	Z19	X20	Y20	Z20	X21	Y21	Z21	X22	Y22	Z22	X23	Y23	Z23	X24	Y24	Z24	X25	Y25	Z25
																																																																												
241	2.4	-755.4905396	1557.874756	764.0496216	-772.194458	1376.109497	721.8127441	-644.7628784	1575.838867	779.1643066	-750.4955444	1597.543579	584.0300903	-696.7685547	1549.313354	776.9949951	-530.4907227	1779.082642	556.6100464	-716.2702026	1586.367798	791.4275513	-699.9190674	1595.485596	438.8464966	-730.1610107	1732.067261	518.2001953	-769.3925781	1512.271484	773.9656372	-548.0653076	1778.713379	653.9655762	-708.3770752	1589.567505	732.3532104	-725.5335083	1522.150879	1051.702148	-610.6246338	1475.908447	1058.018555	-743.4196777	1734.555298	634.0750732	-726.9143066	1459.602295	905.555481	-585.4492188	1522.830811	592.1585693	-523.0453491	1344.278442	592.614563	-804.7540894	1505.871338	676.0709839	-757.5724487	1310.200562	584.8441162	-668.079071	1499.029663	1054.860352	-640.3088989	1327.239502	588.7293396	-667.9723816	1560.187195	588.0943298	-736.7903442	1733.311279	576.1376343	-777.4796956	1479.951864	720.6444499
242	2.41	-755.5040283	1557.884155	764.0614014	-772.1946411	1376.088379	721.8077393	-644.7220459	1575.854004	779.1933594	-750.4578247	1597.578979	584.0773926	-696.7771606	1549.305664	777.0105591	-530.4726563	1779.061523	556.6315308	-716.267395	1586.333862	791.4535522	-699.9622803	1595.466309	438.8944092	-730.1204224	1732.067627	518.2213745	-769.3925781	1512.271484	773.9656372	-548.0422974	1778.712646	654.0335083	-708.3399048	1589.525269	732.3269653	-725.508606	1522.116577	1051.738159	-610.6362305	1475.894165	1058.083984	-743.3829346	1734.542236	634.1035156	-726.9143677	1459.602295	905.555481	-585.4571533	1522.822876	592.180603	-523.0477905	1344.278564	592.630249	-804.753479	1505.892212	676.0756226	-757.5802002	1310.227905	584.906189	-668.0724182	1499.005371	1054.911072	-640.3139954	1327.253235	588.768219	-667.957489	1560.200928	588.1289978	-736.7516785	1733.304932	576.1624451	-777.4840495	1479.954915	720.6482544
243	2.42	-755.4660034	1557.869507	764.0645752	-772.2429199	1376.078247	721.8391724	-644.7683105	1575.883667	779.2146606	-750.463501	1597.537842	584.0872803	-696.7654419	1549.356323	777.0499878	-530.4200439	1779.057373	556.6679077	-716.2523804	1586.377197	791.461731	-699.8755493	1595.473267	438.8889771	-730.1090698	1732.057373	518.2307739	-769.4035034	1512.298584	774.026062	-548.0447998	1778.719727	654.0529175	-708.2758789	1589.496582	732.3388672	-725.5029907	1522.163574	1051.737183	-610.6262207	1475.910156	1058.031616	-743.3874512	1734.548828	634.1030884	-726.8829346	1459.59314	905.5863037	-585.4558716	1522.824097	592.1911011	-523.0565796	1344.268311	592.6581421	-804.753479	1505.892212	676.0756226	-757.6135254	1310.23877	584.8760376	-668.0646057	1499.036865	1054.884399	-640.3350525	1327.25354	588.7670898	-667.9596863	1560.180969	588.1391907	-736.7482605	1733.303101	576.1669312	-777.4874674	1479.946655	720.65979
244	2.43	-755.4667358	1557.889282	764.0861206	-772.1675415	1376.095093	721.8536987	-644.6975708	1575.841431	779.213623	-750.4811401	1597.564697	584.1540527	-696.7548828	1549.31604	777.0481567	-530.4332886	1779.026611	556.6541138	-716.2315674	1586.361206	791.4862061	-699.9277344	1595.467529	438.9101868	-730.0813599	1732.052124	518.2516479	-769.4035034	1512.298584	774.026062	-548.045105	1778.687622	654.1025391	-708.3123169	1589.513672	732.4124756	-725.4725952	1522.134033	1051.764038	-610.5822754	1475.907349	1058.071045	-743.3875122	1734.548828	634.1030273	-726.9276123	1459.609253	905.6112061	-585.4203491	1522.862793	592.2307739	-523.048584	1344.275757	592.6356812	-804.7224121	1505.862061	676.1009521	-757.5856323	1310.201904	584.9119263	-668.0274353	1499.020691	1054.917542	-640.3171082	1327.238831	588.7738037	-667.9507446	1560.213745	588.1924133	-736.734436	1733.300476	576.1773376	-777.4522298	1479.948812	720.6802572
245	2.44	-755.4608154	1557.902466	764.0743408	-772.2102051	1376.111084	721.8795776	-644.755188	1575.855225	779.2087402	-750.4327393	1597.570923	584.1422729	-696.7384033	1549.349609	777.0473633	-530.3730469	1779.000366	556.7056274	-716.2156982	1586.37207	791.4797974	-699.960083	1595.469727	438.9468079	-730.0813599	1732.052002	518.2516479	-769.4035034	1512.298584	774.026062	-547.9805908	1778.688354	654.071228	-708.3206787	1589.534668	732.416687	-725.4725342	1522.155151	1051.768066	-610.5800781	1475.953003	1058.073608	-743.3457031	1734.58252	634.1311646	-726.8962402	1459.600098	905.6419678	-585.4187012	1522.863159	592.2337036	-523.0547485	1344.269287	592.6661377	-804.7217407	1505.882935	676.1056519	-757.5802612	1310.227783	584.906189	-668.0263062	1499.054077	1054.920837	-640.3175049	1327.248535	588.7861633	-667.9257202	1560.217041	588.1879883	-736.7135315	1733.317261	576.1914063	-777.4642537	1479.965495	720.6865234
246	2.45	-755.4632568	1557.906982	764.1279907	-772.253418	1376.10498	721.9003906	-644.6878052	1575.876221	779.2249756	-750.4403076	1597.569458	584.1678467	-696.689209	1549.356445	777.0692749	-530.3479614	1779.02356	556.7302856	-716.1702271	1586.382202	791.5074463	-699.9597778	1595.445435	438.990448	-730.0477295	1732.092773	518.2714844	-769.3720093	1512.289551	774.0563354	-547.9699707	1778.69043	654.1148071	-708.3117676	1589.564575	732.4141846	-725.4310303	1522.198608	1051.788696	-610.5343018	1475.90918	1058.084106	-743.3457031	1734.58252	634.1311035	-726.8535156	1459.664429	905.6665649	-585.4714355	1522.810669	592.2495117	-523.0653687	1344.26001	592.6993408	-804.7316895	1505.888428	676.1616821	-757.5800781	1310.228149	584.906189	-667.982666	1499.053894	1054.936401	-640.3227234	1327.24408	588.8027649	-667.9558716	1560.190063	588.2086792	-736.6967163	1733.337646	576.2012939	-777.4827881	1479.966797	720.7300212
